<svg width="450" height="450" viewBox="0 0 450 450" fill="none" xmlns="http://www.w3.org/2000/svg">
	<path d="M450 0H0V450H450V0Z" fill="#1B5E2B"/>
	<mask id="mask0_2793_916" style="mask-type:luminance" maskUnits="userSpaceOnUse" x="0" y="0" width="450" height="450">
		<path d="M450 0H0V450H450V0Z" fill="white"/>
	</mask>
	<g mask="url(#mask0_2793_916)">
		<g opacity="0.1">
			<path d="M0 0L450 450" stroke="black" stroke-width="2" stroke-miterlimit="10" stroke-linecap="round" stroke-linejoin="round"/>
			<path d="M0 112.5L337.5 450" stroke="black" stroke-width="2" stroke-miterlimit="10" stroke-linecap="round" stroke-linejoin="round"/>
			<path d="M0 225L225 450" stroke="black" stroke-width="2" stroke-miterlimit="10" stroke-linecap="round" stroke-linejoin="round"/>
			<path d="M0 337.5L112.5 450" stroke="black" stroke-width="2" stroke-miterlimit="10" stroke-linecap="round" stroke-linejoin="round"/>
			<path d="M337.5 0L450 112.5" stroke="black" stroke-width="2" stroke-miterlimit="10" stroke-linecap="round" stroke-linejoin="round"/>
			<path d="M225 0L450 225" stroke="black" stroke-width="2" stroke-miterlimit="10" stroke-linecap="round" stroke-linejoin="round"/>
			<path d="M113.3 0L450 337.5" stroke="black" stroke-width="2" stroke-miterlimit="10" stroke-linecap="round" stroke-linejoin="round"/>
			<path d="M450 0L0 450" stroke="black" stroke-width="2" stroke-miterlimit="10" stroke-linecap="round" stroke-linejoin="round"/>
			<path d="M450 112.5L112.5 450" stroke="black" stroke-width="2" stroke-miterlimit="10" stroke-linecap="round" stroke-linejoin="round"/>
			<path d="M450 225L225 450" stroke="black" stroke-width="2" stroke-miterlimit="10" stroke-linecap="round" stroke-linejoin="round"/>
			<path d="M450 337.5L337.5 450" stroke="black" stroke-width="2" stroke-miterlimit="10" stroke-linecap="round" stroke-linejoin="round"/>
			<path d="M112.5 0L0 112.5" stroke="black" stroke-width="2" stroke-miterlimit="10" stroke-linecap="round" stroke-linejoin="round"/>
			<path d="M225 0L0 225" stroke="black" stroke-width="2" stroke-miterlimit="10" stroke-linecap="round" stroke-linejoin="round"/>
			<path d="M336.7 0L0 337.5" stroke="black" stroke-width="2" stroke-miterlimit="10" stroke-linecap="round" stroke-linejoin="round"/>
		</g>
		<g opacity="0.1">
			<path d="M225 33.2L210.1 56.2999L225 79.4L239.9 56.2999L225 33.2Z" fill="black"/>
			<path d="M19 48.5999C19 43.3999 14.7 39.0999 9.5 39.0999C4.3 39.0999 0 43.2999 0 48.5999C0 43.3999 -4.3 39.0999 -9.5 39.0999C-14.7 39.0999 -19 43.3999 -19 48.5999C-19 62.6999 -0.1 73.3999 0 73.4999C0 73.4999 19 62.6999 19 48.5999Z" fill="black"/>
			<path d="M469 48.5999C469 43.3999 464.7 39.0999 459.5 39.0999C454.3 39.0999 450 43.2999 450 48.5999C450 43.3999 445.7 39.0999 440.5 39.0999C435.3 39.0999 431 43.3999 431 48.5999C431 62.6999 449.9 73.3999 450 73.4999C450 73.4999 469 62.6999 469 48.5999Z" fill="black"/>
			<path d="M346.1 67.2999C350.9 67.2999 354.7 63.3999 354.7 58.6999C354.7 45.8999 337.5 36.0999 337.4 36.0999C337.4 36.0999 320.1 45.8999 320.1 58.6999C320.1 63.4999 324 67.2999 328.7 67.2999C332.2 67.2999 335.3 65.1999 336.6 62.0999C333.9 74.4999 324.8 76.4999 324.8 76.4999H349.8C349.8 76.4999 340.7 74.4999 338 62.0999C339.6 65.1999 342.6 67.2999 346.1 67.2999Z" fill="black"/>
			<path d="M121.1 66.7C125.9 66.7 129.7 62.8 129.7 58.1C129.7 53.4 126 49.6 121.3 49.5C121.7 48.5 121.9 47.4 121.9 46.2C121.9 41 117.7 36.7 112.4 36.7C107.2 36.7 102.9 40.9 102.9 46.2C102.9 47.4 103.1 48.5 103.5 49.5C98.9001 49.6 95.1001 53.4 95.1001 58.1C95.1001 62.9 99.0001 66.7 103.7 66.7C107.2 66.7 110.3 64.6 111.6 61.5C108.9 73.9 99.8001 75.9 99.8001 75.9H124.8C124.8 75.9 115.7 73.9 113 61.5C114.5 64.6 117.6 66.7 121.1 66.7Z" fill="black"/>
			<path d="M281.7 89.3999L266.8 112.5L281.7 135.7L296.5 112.5L281.7 89.3999Z" fill="black"/>
			<path d="M75.2998 104.8C75.2998 99.6 70.9998 95.3 65.7998 95.3C60.5998 95.3 56.2998 99.5 56.2998 104.8C56.2998 99.6 51.9998 95.3 46.7998 95.3C41.5998 95.3 37.2998 99.6 37.2998 104.8C37.2998 118.9 56.1998 129.6 56.2998 129.7C56.1998 129.7 75.2998 118.9 75.2998 104.8Z" fill="black"/>
			<path d="M402.4 123.5C407.2 123.5 411 119.6 411 114.9C411 102.1 393.8 92.3 393.7 92.3C393.7 92.3 376.4 102.1 376.4 114.9C376.4 119.7 380.3 123.5 385 123.5C388.5 123.5 391.6 121.4 392.9 118.3C390.2 130.7 381.1 132.7 381.1 132.7H406.1C406.1 132.7 397 130.7 394.3 118.3C395.8 121.4 398.8 123.5 402.4 123.5Z" fill="black"/>
			<path d="M177.4 123C182.2 123 186 119.1 186 114.4C186 109.7 182.3 105.9 177.6 105.8C178 104.8 178.2 103.7 178.2 102.5C178.2 97.3 174 93 168.7 93C163.5 93 159.2 97.2 159.2 102.5C159.2 103.7 159.4 104.8 159.8 105.8C155.2 105.9 151.4 109.7 151.4 114.4C151.4 119.2 155.3 123 160 123C163.5 123 166.6 120.9 167.9 117.8C165.2 130.2 156.1 132.2 156.1 132.2H181.1C181.1 132.2 172 130.2 169.3 117.8C170.8 120.8 173.8 123 177.4 123Z" fill="black"/>
			<path d="M281.7 -23.1001L266.8 -9.53674e-05L281.7 23.1999L296.5 -9.53674e-05L281.7 -23.1001Z" fill="black"/>
			<path d="M75.2998 -7.7002C75.2998 -12.9002 70.9998 -17.2002 65.7998 -17.2002C60.5998 -17.2002 56.2998 -13.0002 56.2998 -7.7002C56.2998 -12.9002 51.9998 -17.2002 46.7998 -17.2002C41.5998 -17.2002 37.2998 -12.9002 37.2998 -7.7002C37.2998 6.39981 56.1998 17.0998 56.2998 17.1998C56.1998 17.1998 75.2998 6.39981 75.2998 -7.7002Z" fill="black"/>
			<path d="M402.4 10.9998C407.2 10.9998 411 7.0998 411 2.3998C411 -10.4002 393.8 -20.2002 393.7 -20.2002C393.7 -20.2002 376.4 -10.4002 376.4 2.3998C376.4 7.1998 380.3 10.9998 385 10.9998C388.5 10.9998 391.6 8.8998 392.9 5.7998C390.2 18.1998 381.1 20.1998 381.1 20.1998H406.1C406.1 20.1998 397 18.1998 394.3 5.7998C395.8 8.8998 398.8 10.9998 402.4 10.9998Z" fill="black"/>
			<path d="M177.4 10.5C182.2 10.5 186 6.6 186 1.9C186 -2.8 182.3 -6.6 177.6 -6.7C178 -7.7 178.2 -8.8 178.2 -10C178.2 -15.2 174 -19.5 168.7 -19.5C163.5 -19.5 159.2 -15.3 159.2 -10C159.2 -8.8 159.4 -7.7 159.8 -6.7C155.2 -6.6 151.4 -2.8 151.4 1.9C151.4 6.7 155.3 10.5 160 10.5C163.5 10.5 166.6 8.4 167.9 5.3C165.2 17.7 156.1 19.7 156.1 19.7H181.1C181.1 19.7 172 17.7 169.3 5.3C170.8 8.3 173.8 10.5 177.4 10.5Z" fill="black"/>
			<path d="M225 145.7L210.1 168.8L225 191.9L239.9 168.8L225 145.7Z" fill="black"/>
			<path d="M19 161.1C19 155.9 14.7 151.6 9.5 151.6C4.3 151.6 0 155.8 0 161.1C0 155.9 -4.3 151.6 -9.5 151.6C-14.7 151.6 -19 155.9 -19 161.1C-19 175.2 -0.1 185.9 0 186C0 186 19 175.2 19 161.1Z" fill="black"/>
			<path d="M469 161.1C469 155.9 464.7 151.6 459.5 151.6C454.3 151.6 450 155.8 450 161.1C450 155.9 445.7 151.6 440.5 151.6C435.3 151.6 431 155.9 431 161.1C431 175.2 449.9 185.9 450 186C450 186 469 175.2 469 161.1Z" fill="black"/>
			<path d="M346.1 179.8C350.9 179.8 354.7 175.9 354.7 171.2C354.7 158.4 337.5 148.6 337.4 148.6C337.4 148.6 320.1 158.4 320.1 171.2C320.1 176 324 179.8 328.7 179.8C332.2 179.8 335.3 177.7 336.6 174.6C333.9 187 324.8 189 324.8 189H349.8C349.8 189 340.7 187 338 174.6C339.6 177.7 342.6 179.8 346.1 179.8Z" fill="black"/>
			<path d="M121.1 179.2C125.9 179.2 129.7 175.3 129.7 170.6C129.7 165.9 126 162.1 121.3 162C121.7 161 121.9 159.9 121.9 158.7C121.9 153.5 117.7 149.2 112.4 149.2C107.2 149.2 102.9 153.4 102.9 158.7C102.9 159.9 103.1 161 103.5 162C98.9001 162.1 95.1001 165.9 95.1001 170.6C95.1001 175.4 99.0001 179.2 103.7 179.2C107.2 179.2 110.3 177.1 111.6 174C108.9 186.4 99.8001 188.4 99.8001 188.4H124.8C124.8 188.4 115.7 186.4 113 174C114.5 177.1 117.6 179.2 121.1 179.2Z" fill="black"/>
			<path d="M281.7 201.9L266.8 225L281.7 248.2L296.5 225L281.7 201.9Z" fill="black"/>
			<path d="M75.2998 217.4C75.2998 212.2 70.9998 207.9 65.7998 207.9C60.5998 207.9 56.2998 212.1 56.2998 217.4C56.2998 212.2 51.9998 207.9 46.7998 207.9C41.5998 207.9 37.2998 212.2 37.2998 217.4C37.2998 231.5 56.1998 242.2 56.2998 242.3C56.1998 242.2 75.2998 231.4 75.2998 217.4Z" fill="black"/>
			<path d="M402.4 236C407.2 236 411 232.1 411 227.4C411 214.6 393.8 204.8 393.7 204.8C393.7 204.8 376.4 214.6 376.4 227.4C376.4 232.2 380.3 236 385 236C388.5 236 391.6 233.9 392.9 230.8C390.2 243.2 381.1 245.2 381.1 245.2H406.1C406.1 245.2 397 243.2 394.3 230.8C395.8 233.9 398.8 236 402.4 236Z" fill="black"/>
			<path d="M177.4 235.5C182.2 235.5 186 231.6 186 226.9C186 222.2 182.3 218.4 177.6 218.3C178 217.3 178.2 216.2 178.2 215C178.2 209.8 174 205.5 168.7 205.5C163.5 205.5 159.2 209.7 159.2 215C159.2 216.2 159.4 217.3 159.8 218.3C155.2 218.4 151.4 222.2 151.4 226.9C151.4 231.7 155.3 235.5 160 235.5C163.5 235.5 166.6 233.4 167.9 230.3C165.2 242.7 156.1 244.7 156.1 244.7H181.1C181.1 244.7 172 242.7 169.3 230.3C170.8 233.3 173.8 235.5 177.4 235.5Z" fill="black"/>
			<path d="M225 258.2L210.1 281.3L225 304.4L239.9 281.3L225 258.2Z" fill="black"/>
			<path d="M19 273.6C19 268.4 14.7 264.1 9.5 264.1C4.3 264.1 0 268.3 0 273.6C0 268.4 -4.3 264.1 -9.5 264.1C-14.7 264.1 -19 268.4 -19 273.6C-19 287.7 -0.1 298.4 0 298.5C0 298.5 19 287.7 19 273.6Z" fill="black"/>
			<path d="M469 273.6C469 268.4 464.7 264.1 459.5 264.1C454.3 264.1 450 268.3 450 273.6C450 268.4 445.7 264.1 440.5 264.1C435.3 264.1 431 268.4 431 273.6C431 287.7 449.9 298.4 450 298.5C450 298.5 469 287.7 469 273.6Z" fill="black"/>
			<path d="M346.1 292.3C350.9 292.3 354.7 288.4 354.7 283.7C354.7 270.9 337.5 261.1 337.4 261.1C337.4 261.1 320.1 270.9 320.1 283.7C320.1 288.5 324 292.3 328.7 292.3C332.2 292.3 335.3 290.2 336.6 287.1C333.9 299.5 324.8 301.5 324.8 301.5H349.8C349.8 301.5 340.7 299.5 338 287.1C339.6 290.2 342.6 292.3 346.1 292.3Z" fill="black"/>
			<path d="M121.1 291.7C125.9 291.7 129.7 287.8 129.7 283.1C129.7 278.4 126 274.6 121.3 274.5C121.7 273.5 121.9 272.4 121.9 271.2C121.9 266 117.7 261.7 112.4 261.7C107.2 261.7 102.9 265.9 102.9 271.2C102.9 272.4 103.1 273.5 103.5 274.5C98.9001 274.6 95.1001 278.4 95.1001 283.1C95.1001 287.9 99.0001 291.7 103.7 291.7C107.2 291.7 110.3 289.6 111.6 286.5C108.9 298.9 99.8001 300.9 99.8001 300.9H124.8C124.8 300.9 115.7 298.9 113 286.5C114.5 289.6 117.6 291.7 121.1 291.7Z" fill="black"/>
			<path d="M281.7 314.4L266.8 337.5L281.7 360.7L296.5 337.5L281.7 314.4Z" fill="black"/>
			<path d="M75.2998 329.8C75.2998 324.6 70.9998 320.3 65.7998 320.3C60.5998 320.3 56.2998 324.5 56.2998 329.8C56.2998 324.6 51.9998 320.3 46.7998 320.3C41.5998 320.3 37.2998 324.6 37.2998 329.8C37.2998 343.9 56.1998 354.6 56.2998 354.7C56.1998 354.7 75.2998 343.9 75.2998 329.8Z" fill="black"/>
			<path d="M402.4 348.5C407.2 348.5 411 344.6 411 339.9C411 327.1 393.8 317.3 393.7 317.3C393.7 317.3 376.4 327.1 376.4 339.9C376.4 344.7 380.3 348.5 385 348.5C388.5 348.5 391.6 346.4 392.9 343.3C390.2 355.7 381.1 357.7 381.1 357.7H406.1C406.1 357.7 397 355.7 394.3 343.3C395.8 346.4 398.8 348.5 402.4 348.5Z" fill="black"/>
			<path d="M177.4 348C182.2 348 186 344.1 186 339.4C186 334.7 182.3 330.9 177.6 330.8C178 329.8 178.2 328.7 178.2 327.5C178.2 322.3 174 318 168.7 318C163.5 318 159.2 322.2 159.2 327.5C159.2 328.7 159.4 329.8 159.8 330.8C155.2 330.9 151.4 334.7 151.4 339.4C151.4 344.2 155.3 348 160 348C163.5 348 166.6 345.9 167.9 342.8C165.2 355.2 156.1 357.2 156.1 357.2H181.1C181.1 357.2 172 355.2 169.3 342.8C170.8 345.8 173.8 348 177.4 348Z" fill="black"/>
			<path d="M225 370.7L210.1 393.8L225 416.9L239.9 393.8L225 370.7Z" fill="black"/>
			<path d="M19 386.1C19 380.9 14.7 376.6 9.5 376.6C4.3 376.6 0 380.8 0 386.1C0 380.9 -4.3 376.6 -9.5 376.6C-14.7 376.6 -19 380.9 -19 386.1C-19 400.2 -0.1 410.9 0 411C0 411 19 400.2 19 386.1Z" fill="black"/>
			<path d="M469 386.1C469 380.9 464.7 376.6 459.5 376.6C454.3 376.6 450 380.8 450 386.1C450 380.9 445.7 376.6 440.5 376.6C435.3 376.6 431 380.9 431 386.1C431 400.2 449.9 410.9 450 411C450 411 469 400.2 469 386.1Z" fill="black"/>
			<path d="M346.1 404.8C350.9 404.8 354.7 400.9 354.7 396.2C354.7 383.4 337.5 373.6 337.4 373.6C337.4 373.6 320.1 383.4 320.1 396.2C320.1 401 324 404.8 328.7 404.8C332.2 404.8 335.3 402.7 336.6 399.6C333.9 412 324.8 414 324.8 414H349.8C349.8 414 340.7 412 338 399.6C339.6 402.7 342.6 404.8 346.1 404.8Z" fill="black"/>
			<path d="M121.1 404.2C125.9 404.2 129.7 400.3 129.7 395.6C129.7 390.9 126 387.1 121.3 387C121.7 386 121.9 384.9 121.9 383.7C121.9 378.5 117.7 374.2 112.4 374.2C107.2 374.2 102.9 378.4 102.9 383.7C102.9 384.9 103.1 386 103.5 387C98.9001 387.1 95.1001 390.9 95.1001 395.6C95.1001 400.4 99.0001 404.2 103.7 404.2C107.2 404.2 110.3 402.1 111.6 399C108.9 411.4 99.8001 413.4 99.8001 413.4H124.8C124.8 413.4 115.7 411.4 113 399C114.5 402.1 117.6 404.2 121.1 404.2Z" fill="black"/>
			<path d="M281.7 426.9L266.8 450L281.7 473.2L296.5 450L281.7 426.9Z" fill="black"/>
			<path d="M75.2998 442.4C75.2998 437.2 70.9998 432.9 65.7998 432.9C60.5998 432.9 56.2998 437.1 56.2998 442.4C56.2998 437.2 51.9998 432.9 46.7998 432.9C41.5998 432.9 37.2998 437.2 37.2998 442.4C37.2998 456.5 56.1998 467.2 56.2998 467.3C56.1998 467.2 75.2998 456.4 75.2998 442.4Z" fill="black"/>
			<path d="M402.4 461.1C407.2 461.1 411 457.2 411 452.5C411 439.7 393.8 429.9 393.7 429.9C393.7 429.9 376.4 439.7 376.4 452.5C376.4 457.3 380.3 461.1 385 461.1C388.5 461.1 391.6 459 392.9 455.9C390.2 468.3 381.1 470.3 381.1 470.3H406.1C406.1 470.3 397 468.3 394.3 455.9C395.8 458.9 398.8 461.1 402.4 461.1Z" fill="black"/>
			<path d="M177.4 460.5C182.2 460.5 186 456.6 186 451.9C186 447.2 182.3 443.4 177.6 443.3C178 442.3 178.2 441.2 178.2 440C178.2 434.8 174 430.5 168.7 430.5C163.5 430.5 159.2 434.7 159.2 440C159.2 441.2 159.4 442.3 159.8 443.3C155.2 443.4 151.4 447.2 151.4 451.9C151.4 456.7 155.3 460.5 160 460.5C163.5 460.5 166.6 458.4 167.9 455.3C165.2 467.7 156.1 469.7 156.1 469.7H181.1C181.1 469.7 172 467.7 169.3 455.3C170.8 458.3 173.8 460.5 177.4 460.5Z" fill="black"/>
		</g>
	</g>
</svg>
